<?xml version="1.0" encoding="iso-8859-1"?>
<!-- Generator: Adobe Illustrator 19.0.0, SVG Export Plug-In . SVG Version: 6.00 Build 0)  -->
<svg version="1.1" id="Layer_1" xmlns="http://www.w3.org/2000/svg" xmlns:xlink="http://www.w3.org/1999/xlink" x="0px" y="0px"
	 viewBox="0 0 330.199 330.199" style="enable-background:new 0 0 330.199 330.199;" xml:space="preserve">
<path id="XMLID_22_" d="M329.097,165.266c0.001-0.073,0.011-0.143,0.011-0.216c0-0.005-0.001-0.01-0.001-0.015
	c0-0.081-0.005-0.162-0.006-0.243c-0.14-35.723-29.239-64.742-64.985-64.742l-75.008-0.041V45c0-24.813-20.187-45-45-45
	s-45,20.187-45,45v155.541l-32.879-16.724c-6.204-3.108-13.168-4.751-20.139-4.751c-24.813,0-45,20.187-45,45
	c0,17.157,9.536,32.584,24.889,40.264l128.546,64.281c2.154,1.077,4.442,1.587,6.697,1.587c5.502,0,10.8-3.039,13.428-8.294
	c3.705-7.41,0.702-16.42-6.707-20.125L39.399,237.499c-5.125-2.563-8.308-7.71-8.308-13.432c0-8.271,6.729-15,15-15
	c2.363,0,4.617,0.529,6.619,1.532l54.598,27.771c4.65,2.366,10.196,2.144,14.643-0.583c4.447-2.728,7.158-7.57,7.158-12.787V45
	c0-8.271,6.729-15,15-15s15,6.729,15,15v70c0,0.25,0.025,0.494,0.038,0.741c0.013,0.263,0.013,0.529,0.04,0.788
	c0.027,0.269,0.08,0.53,0.121,0.795c0.036,0.231,0.059,0.466,0.106,0.694c0.059,0.289,0.143,0.569,0.219,0.853
	c0.052,0.194,0.091,0.394,0.15,0.584c0.09,0.291,0.204,0.57,0.311,0.852c0.066,0.175,0.12,0.355,0.192,0.526
	c0.117,0.276,0.257,0.541,0.39,0.809c0.082,0.167,0.153,0.34,0.242,0.503c0.14,0.258,0.301,0.502,0.456,0.751
	c0.1,0.161,0.189,0.329,0.295,0.486c0.154,0.228,0.328,0.442,0.494,0.661c0.125,0.164,0.239,0.336,0.37,0.495
	c0.159,0.193,0.335,0.37,0.504,0.555c0.155,0.17,0.301,0.348,0.464,0.51c0.169,0.169,0.354,0.322,0.531,0.482
	c0.178,0.162,0.349,0.333,0.534,0.486c0.176,0.144,0.365,0.272,0.547,0.409c0.202,0.152,0.398,0.313,0.607,0.455
	c0.181,0.122,0.374,0.226,0.56,0.341c0.225,0.138,0.444,0.285,0.676,0.411c0.189,0.103,0.39,0.187,0.584,0.282
	c0.242,0.118,0.479,0.245,0.728,0.35c0.187,0.08,0.385,0.14,0.576,0.212c0.267,0.1,0.529,0.208,0.802,0.293
	c0.204,0.063,0.415,0.106,0.623,0.161c0.271,0.072,0.538,0.153,0.814,0.21c0.225,0.046,0.458,0.069,0.686,0.105
	c0.267,0.042,0.531,0.095,0.804,0.123c0.236,0.024,0.479,0.024,0.719,0.037c0.27,0.014,0.537,0.041,0.81,0.041l90.008,0.05
	c18.857,0,34.271,14.993,34.967,33.683l-29.676,148.524c-1.623,8.124,3.647,16.025,11.771,17.648
	c0.992,0.198,1.98,0.294,2.955,0.294c7.004,0,13.268-4.933,14.693-12.064l29.974-150.017c0.007-0.033,0.013-0.066,0.02-0.099
	l0.006-0.03c0.02-0.097,0.025-0.194,0.043-0.291c0.069-0.386,0.134-0.773,0.173-1.169
	C329.076,166.105,329.091,165.685,329.097,165.266z"/>
<g>
</g>
<g>
</g>
<g>
</g>
<g>
</g>
<g>
</g>
<g>
</g>
<g>
</g>
<g>
</g>
<g>
</g>
<g>
</g>
<g>
</g>
<g>
</g>
<g>
</g>
<g>
</g>
<g>
</g>
</svg>
